<svg width="66" height="46" viewBox="0 0 66 46" fill="none" xmlns="http://www.w3.org/2000/svg">
<path d="M32.852 22.0707C32.7456 22.1764 32.642 22.282 32.5411 22.3877C32.5103 22.4191 32.4795 22.4519 32.4487 22.4862L32.3899 22.5504C32.3591 22.5847 32.3297 22.6204 32.3017 22.6575C32.2569 22.7089 32.2163 22.7646 32.1798 22.8245C32.1714 22.8388 32.163 22.8516 32.1546 22.8631C32.1462 22.8773 32.1378 22.8902 32.1294 22.9016C32.121 22.9159 32.1126 22.9302 32.1042 22.9444C32.0986 22.9559 32.0916 22.9687 32.0832 22.983C32.072 23.0058 32.0608 23.0287 32.0496 23.0515C32.0412 23.0687 32.0342 23.0844 32.0286 23.0986C32.023 23.1129 32.0174 23.1272 32.0118 23.1415C32.009 23.1586 32.0048 23.1743 31.9992 23.1886C31.9936 23.2029 31.9894 23.2186 31.9866 23.2357C31.9838 23.2443 31.9824 23.2528 31.9824 23.2614C31.9796 23.27 31.9768 23.2785 31.974 23.2871C31.974 23.2957 31.9726 23.3042 31.9698 23.3128C31.9698 23.3214 31.9684 23.3299 31.9656 23.3385C31.9656 23.3471 31.9656 23.3556 31.9656 23.3642C31.9656 23.3728 31.9642 23.3813 31.9614 23.3899C31.9614 23.3985 31.9614 23.407 31.9614 23.4156C31.9614 23.4242 31.9614 23.4327 31.9614 23.4413C31.9614 23.447 31.9614 23.4541 31.9614 23.4627C31.9614 23.4684 31.9614 23.4755 31.9614 23.4841C31.9642 23.4898 31.9656 23.497 31.9656 23.5055C31.9656 23.5112 31.9656 23.517 31.9656 23.5227C31.9684 23.5312 31.9698 23.5384 31.9698 23.5441C31.9726 23.5498 31.974 23.5555 31.974 23.5612C31.9768 23.5698 31.9782 23.5769 31.9782 23.5826C31.981 23.5883 31.9824 23.594 31.9824 23.5998C31.9852 23.6055 31.988 23.6112 31.9908 23.6169C31.9936 23.6226 31.995 23.6283 31.995 23.634C31.9978 23.6397 32.0006 23.6454 32.0034 23.6512C32.0062 23.6569 32.009 23.6611 32.0118 23.664C32.0174 23.6754 32.023 23.6868 32.0286 23.6983C32.037 23.7068 32.044 23.7154 32.0496 23.724C32.058 23.7325 32.0664 23.7411 32.0748 23.7497C32.0832 23.7582 32.0916 23.7668 32.1 23.7754C32.1056 23.7811 32.1112 23.7854 32.1168 23.7882C32.1224 23.7911 32.128 23.7953 32.1336 23.8011C32.1392 23.8039 32.1448 23.8068 32.1504 23.8096C32.156 23.8153 32.1616 23.8196 32.1672 23.8225C32.1728 23.8225 32.177 23.8239 32.1798 23.8268C32.1827 23.8296 32.1855 23.831 32.1883 23.831C32.1939 23.8339 32.1981 23.8353 32.2009 23.8353C32.2037 23.8382 32.2079 23.8396 32.2135 23.8396C32.2219 23.8453 32.2303 23.8496 32.2387 23.8525C32.2471 23.8553 32.2569 23.8582 32.2681 23.861C32.2765 23.8639 32.2849 23.8667 32.2933 23.8696C32.3045 23.8724 32.3143 23.8753 32.3227 23.8782C32.3451 23.8839 32.3689 23.8881 32.3941 23.891C32.4193 23.8953 32.4529 23.8996 32.4823 23.8996H32.6504L32.7554 23.8953L32.852 23.891V22.0707Z" fill="white"/>
<path fill-rule="evenodd" clip-rule="evenodd" d="M54.5047 6.65171C54.8828 6.66028 55.2567 6.74594 55.6054 6.90013C55.9499 7.05432 56.265 7.27704 56.5297 7.55544C56.7944 7.83383 57.0044 8.15935 57.1473 8.51912C57.2901 8.87462 57.3615 9.26009 57.3615 9.64557V25.3472C57.3615 25.737 57.2859 26.1268 57.1389 26.4908C56.9918 26.8549 56.7776 27.1847 56.5045 27.4631C56.2314 27.7415 55.9079 27.9599 55.555 28.1098C55.1979 28.264 54.8156 28.3411 54.4291 28.3411H47.367V31.4163H49.9129V39.3443H37.6623V31.4163H39.8259V27.977L39.6747 28.067C39.5655 28.1412 39.4562 28.214 39.347 28.2854C39.2378 28.3539 39.1271 28.421 39.0151 28.4867C38.7602 28.6381 38.5026 28.7851 38.2421 28.9279C38.1077 29.0021 37.9718 29.0721 37.8346 29.1377C37.5293 29.2919 37.217 29.4333 36.8977 29.5618C36.6079 29.6817 36.3138 29.7845 36.0155 29.8787C35.9539 29.8958 35.8909 29.913 35.8264 29.9301C35.7648 29.9501 35.7018 29.9672 35.6374 29.9815C35.573 29.9958 35.5086 30.0101 35.4441 30.0243C35.3797 30.0386 35.3153 30.0515 35.2509 30.0629C35.1949 30.0715 35.1389 30.08 35.0828 30.0886C35.024 30.0972 34.9652 30.1057 34.9064 30.1143C34.8504 30.12 34.793 30.1257 34.7341 30.1314C34.6781 30.1371 34.6207 30.1414 34.5619 30.1443C34.4499 30.1528 34.3364 30.1585 34.2216 30.1614C34.1096 30.1614 33.9961 30.16 33.8813 30.1571C33.7693 30.1543 33.6573 30.1485 33.5452 30.14C33.4304 30.1314 33.317 30.1214 33.2049 30.11C33.1685 30.1043 33.1307 30.0986 33.0915 30.0929C33.0369 30.0843 32.9865 30.0757 32.9319 30.0629V31.4206H35.108V39.3443H22.9793V31.4206H25.1513V25.7584H18.6354V31.4206H20.8073V39.3485H8.68284V31.4206H10.8548V15.5048H8.68284V6.65171H20.8073V15.5048H18.6354V21.167H25.1513V15.5048H22.9793V6.65171H35.0996V15.5048H32.9277V20.623L32.9739 20.5973L33.0117 20.5759C33.0593 20.5417 33.1083 20.5088 33.1587 20.4774C33.2343 20.4303 33.31 20.3832 33.394 20.3404C33.5284 20.2633 33.6657 20.1876 33.8057 20.1134C34.0115 20.0063 34.2216 19.8992 34.4359 19.7921C34.7215 19.6522 35.01 19.5152 35.3013 19.3809C35.6318 19.2182 35.9651 19.0654 36.3012 18.9227C36.6401 18.7799 36.979 18.6414 37.3179 18.5072C37.6091 18.3873 37.9004 18.2716 38.1917 18.1603C38.4017 18.0803 38.6118 18.0032 38.8219 17.929C38.9605 17.8819 39.1033 17.8348 39.242 17.7919C39.3344 17.7634 39.4282 17.7348 39.5234 17.7063C39.5907 17.6863 39.6593 17.6692 39.7293 17.6549L39.8133 17.6335V18.4986L39.9772 18.4472L40.2502 18.3659L40.4141 18.3145C40.4477 18.3016 40.4897 18.2888 40.5317 18.2759C40.5765 18.2616 40.6213 18.2488 40.6662 18.2374C40.7922 18.2003 40.9168 18.166 41.0401 18.1346C41.1885 18.0975 41.3383 18.0632 41.4896 18.0318C41.54 18.0204 41.5918 18.0104 41.645 18.0018L41.7333 17.989H41.7627C41.7921 17.9847 41.8215 17.9804 41.8509 17.9804C41.8621 17.9775 41.8733 17.9761 41.8845 17.9761C41.8929 17.9761 41.9027 17.9761 41.9139 17.9761C41.9251 17.9761 41.9363 17.9761 41.9475 17.9761C41.9587 17.9761 41.9685 17.9775 41.9769 17.9804C41.9825 17.9804 41.9867 17.9804 41.9895 17.9804C41.9923 17.9804 41.9965 17.9804 42.0021 17.9804C42.0049 17.9804 42.0077 17.9804 42.0105 17.9804C42.0161 17.9804 42.0203 17.9818 42.0231 17.9847C42.0287 17.9847 42.0343 17.9847 42.0399 17.9847C42.0455 17.9847 42.0511 17.9861 42.0567 17.989C42.0623 17.989 42.0679 17.9904 42.0735 17.9932C42.0791 17.9932 42.0848 17.9947 42.0904 17.9975C42.0932 17.9975 42.096 17.999 42.0988 18.0018C42.1016 18.0018 42.1058 18.0032 42.1114 18.0061C42.1142 18.0061 42.117 18.0075 42.1198 18.0104C42.1226 18.0104 42.1268 18.0118 42.1324 18.0147C42.1352 18.0147 42.138 18.0161 42.1408 18.0189C42.1436 18.0189 42.145 18.0204 42.145 18.0232C42.1478 18.0261 42.1506 18.0275 42.1534 18.0275C42.1562 18.0304 42.159 18.0318 42.1618 18.0318C42.1646 18.0375 42.1674 18.0418 42.1702 18.0446C42.173 18.0475 42.1772 18.0503 42.1828 18.0532C42.1856 18.0589 42.187 18.0632 42.187 18.0661C42.1898 18.0689 42.1926 18.0732 42.1954 18.0789C42.1954 18.0818 42.1968 18.0832 42.1996 18.0832C42.1996 18.086 42.1996 18.0889 42.1996 18.0917C42.1996 18.0946 42.201 18.096 42.2038 18.096C42.2038 18.0989 42.2038 18.1017 42.2038 18.1046C42.2038 18.1075 42.2038 18.1103 42.2038 18.1132C42.2038 18.116 42.2038 18.1189 42.2038 18.1217C42.2038 18.1246 42.2038 18.126 42.2038 18.126C42.2038 18.1289 42.2038 18.1317 42.2038 18.1346C42.2038 18.1374 42.2038 18.1417 42.2038 18.1474C42.2038 18.1503 42.2038 18.1531 42.2038 18.156C42.2038 18.1588 42.2024 18.1617 42.1996 18.1646C42.1996 18.1674 42.1996 18.1703 42.1996 18.1731C42.1996 18.176 42.1982 18.1803 42.1954 18.186C42.1954 18.1888 42.1954 18.1917 42.1954 18.1945C42.1926 18.2003 42.1912 18.2045 42.1912 18.2074C42.1884 18.2102 42.187 18.2145 42.187 18.2202C42.1842 18.2231 42.1814 18.2274 42.1786 18.2331C42.1786 18.2388 42.1772 18.2445 42.1744 18.2502C42.1716 18.2531 42.1688 18.2574 42.166 18.2631C42.1632 18.2659 42.1604 18.2702 42.1576 18.2759C42.1548 18.2816 42.152 18.2888 42.1492 18.2973C42.1464 18.303 42.1422 18.3088 42.1366 18.3145C42.1338 18.3202 42.131 18.3273 42.1282 18.3359C42.1226 18.3416 42.1184 18.3473 42.1156 18.353C42.0946 18.383 42.0735 18.413 42.0483 18.443C42.0021 18.5029 41.9601 18.5543 41.9055 18.61C41.8509 18.67 41.8047 18.7128 41.7417 18.777C41.6772 18.8427 41.61 18.9041 41.54 18.9612C41.498 18.9955 41.4644 19.0212 41.4098 19.064C41.3552 19.1068 41.3005 19.1454 41.2459 19.1839C41.1059 19.281 40.963 19.3738 40.8174 19.4623C40.6494 19.5651 40.4799 19.6651 40.3091 19.7621L39.8133 20.0405V18.5029L38.9899 18.8156C38.7882 18.8927 38.5866 18.9698 38.3849 19.0512C38.0853 19.1654 37.787 19.2824 37.4901 19.4024C37.1372 19.5508 36.7843 19.7008 36.4314 19.8521C36.1989 19.9492 35.9679 20.0491 35.7382 20.1519C35.5786 20.2204 35.4203 20.2918 35.2635 20.3661C35.1599 20.4146 35.0576 20.4646 34.9568 20.516C34.6795 20.6587 34.4051 20.8115 34.1334 20.9742C33.9233 21.097 33.7175 21.2241 33.5158 21.3554C33.415 21.4197 33.3268 21.4882 33.2301 21.561C33.1349 21.6353 33.0397 21.7095 32.9445 21.7837L32.9235 21.8052V20.6102L32.8856 20.6402L32.768 20.7301C32.6672 20.8015 32.5692 20.8743 32.4739 20.9485C32.3899 21.0085 32.3101 21.0713 32.2345 21.137C32.156 21.2027 32.0804 21.2712 32.0076 21.3426C31.9376 21.414 31.869 21.4882 31.8017 21.5653C31.7345 21.6424 31.6715 21.7224 31.6127 21.8052C31.5343 21.9165 31.4601 22.0279 31.39 22.1392C31.3704 22.1764 31.3494 22.2135 31.327 22.2506C31.3074 22.2849 31.2878 22.3206 31.2682 22.3577C31.2486 22.3948 31.2304 22.4319 31.2136 22.469C31.194 22.5062 31.1758 22.5447 31.159 22.5847C31.1366 22.6304 31.1156 22.676 31.096 22.7217C31.0791 22.7703 31.0609 22.8188 31.0413 22.8674C31.0245 22.913 31.0077 22.9602 30.9909 23.0087C30.9769 23.0572 30.9629 23.1072 30.9489 23.1586C30.9377 23.1986 30.9279 23.24 30.9195 23.2828C30.9111 23.3228 30.9041 23.3642 30.8985 23.407C30.8929 23.447 30.8887 23.4884 30.8859 23.5312C30.8831 23.5741 30.8831 23.6169 30.8859 23.6597C30.8831 23.6797 30.8831 23.7011 30.8859 23.724C30.8859 23.744 30.8873 23.7639 30.8901 23.7839C30.8901 23.8068 30.8915 23.8282 30.8943 23.8482C30.8971 23.8682 30.8999 23.8881 30.9027 23.9081C30.9083 23.9395 30.9153 23.971 30.9237 24.0024C30.9321 24.0338 30.9419 24.0638 30.9531 24.0923C30.9671 24.1209 30.9811 24.148 30.9951 24.1737C31.0119 24.2022 31.0301 24.2294 31.0497 24.2551C31.0665 24.2779 31.0848 24.3008 31.1044 24.3236C31.124 24.3464 31.145 24.3693 31.1674 24.3921C31.187 24.415 31.208 24.4364 31.2304 24.4564C31.2528 24.4764 31.2766 24.4963 31.3018 24.5163C31.355 24.562 31.4124 24.6034 31.4741 24.6405C31.5329 24.6805 31.5945 24.7162 31.6589 24.7476C31.7205 24.779 31.7849 24.8076 31.8522 24.8333C31.9194 24.859 31.988 24.8804 32.058 24.8975L32.1462 24.9189C31.9446 25.1417 31.7485 25.3701 31.5581 25.6042C31.4376 25.7527 31.3228 25.9055 31.2136 26.0625C31.1688 26.1253 31.124 26.1896 31.0791 26.2553C31.0343 26.3238 30.9923 26.3923 30.9531 26.4608C30.9111 26.5265 30.8705 26.595 30.8313 26.6664C30.7949 26.735 30.7585 26.8049 30.7221 26.8763C30.7108 26.902 30.6982 26.9277 30.6842 26.9534C30.673 26.9791 30.6632 27.0048 30.6548 27.0305C30.6436 27.0562 30.6338 27.0819 30.6254 27.1076C30.6142 27.1333 30.6044 27.159 30.596 27.1847C30.5764 27.2446 30.5596 27.306 30.5456 27.3688C30.5316 27.4317 30.5204 27.4945 30.512 27.5573C30.5036 27.6201 30.4994 27.6829 30.4994 27.7458C30.4966 27.8114 30.4966 27.8757 30.4994 27.9385C30.505 28.027 30.5162 28.1141 30.533 28.1998C30.5526 28.2883 30.5764 28.3739 30.6044 28.4567C30.6324 28.5395 30.6674 28.6209 30.7094 28.7009C30.7487 28.7808 30.7935 28.8565 30.8439 28.9279C30.8719 28.9707 30.9013 29.0121 30.9321 29.0521C30.9657 29.0921 30.9993 29.1306 31.0329 29.1677C31.0665 29.2048 31.1016 29.242 31.138 29.2791C31.1744 29.3133 31.2122 29.3462 31.2514 29.3776C31.3382 29.4518 31.4292 29.5189 31.5245 29.5789C31.6197 29.6389 31.7191 29.6931 31.8228 29.7417C31.9236 29.7902 32.0272 29.8316 32.1336 29.8659C32.2401 29.9001 32.3493 29.9273 32.4613 29.9472L32.726 30.0158L32.7806 30.0243L32.8352 30.0372L32.9235 30.0629V29.0863L32.7596 29.0307L32.5874 28.9664C32.5341 28.9464 32.4823 28.925 32.4319 28.9022C32.4039 28.8908 32.3745 28.8779 32.3437 28.8636L32.2765 28.8294C32.2597 28.8208 32.2513 28.8208 32.2261 28.8037C32.1967 28.7865 32.1672 28.7651 32.1462 28.7523C32.1252 28.7351 32.1084 28.718 32.0874 28.7009C32.0734 28.6895 32.0608 28.6766 32.0496 28.6623C32.0356 28.6509 32.023 28.6381 32.0118 28.6238C31.9978 28.6095 31.9866 28.5952 31.9782 28.5809C31.967 28.5667 31.9558 28.551 31.9446 28.5338C31.9362 28.5224 31.9292 28.5096 31.9236 28.4953C31.9152 28.4839 31.9082 28.471 31.9026 28.4567C31.8942 28.4425 31.8872 28.4296 31.8816 28.4182C31.876 28.4039 31.8704 28.3896 31.8648 28.3754C31.8522 28.3411 31.8396 28.3111 31.8312 28.2726C31.8186 28.234 31.8101 28.1912 31.8017 28.1526C31.7989 28.1412 31.7961 28.1298 31.7933 28.1184C31.7933 28.1041 31.7919 28.0913 31.7891 28.0798C31.7863 28.0684 31.7849 28.057 31.7849 28.0456C31.7821 28.0341 31.7807 28.0213 31.7807 28.007C31.7765 27.9513 31.7681 27.8957 31.7681 27.84C31.7681 27.8086 31.7695 27.7757 31.7723 27.7415C31.7723 27.7072 31.7737 27.6744 31.7765 27.643C31.7765 27.6087 31.7793 27.5759 31.7849 27.5444C31.7877 27.5102 31.7919 27.4773 31.7975 27.4459C31.8059 27.3731 31.8185 27.3003 31.8354 27.2361C31.8494 27.1704 31.8662 27.1062 31.8858 27.0433C31.8914 27.0291 31.897 27.0148 31.9026 27.0005C31.9082 26.9862 31.9124 26.9719 31.9152 26.9577C31.9208 26.9434 31.9264 26.9291 31.932 26.9148C31.9376 26.9006 31.9432 26.8877 31.9488 26.8763C31.9712 26.822 31.9964 26.7692 32.0244 26.7178C32.0356 26.695 32.0482 26.6721 32.0622 26.6493C32.0762 26.6264 32.0888 26.6036 32.1 26.5808C32.114 26.5579 32.128 26.5365 32.142 26.5165C32.1588 26.4937 32.1742 26.4723 32.1883 26.4523C32.2135 26.4137 32.2387 26.3837 32.2723 26.3409C32.3059 26.2938 32.3353 26.2595 32.3773 26.2124C32.4165 26.1639 32.4571 26.1168 32.4991 26.0711C32.5888 25.9683 32.6826 25.8683 32.7806 25.7713L32.9235 25.6256V24.1309C32.9487 24.1309 32.9739 24.1223 32.9991 24.1223L33.0495 24.1137C33.0747 24.1109 33.0985 24.1066 33.1209 24.1009C33.1461 24.0952 33.1699 24.0895 33.1923 24.0837C33.2147 24.078 33.2385 24.0709 33.2637 24.0623C33.2862 24.0566 33.31 24.0509 33.3352 24.0452C33.3968 24.0252 33.4598 24.0038 33.5242 23.9809C33.6138 23.9495 33.7035 23.9167 33.7931 23.8824C34.062 23.7825 34.3308 23.6769 34.5997 23.5655C34.933 23.4313 35.2677 23.2957 35.6038 23.1586L35.713 23.1115L35.9609 23.0001L36.1625 22.9102H36.2171C36.22 22.9102 36.2242 22.9102 36.2298 22.9102C36.2326 22.9102 36.2368 22.9116 36.2424 22.9145C36.2452 22.9145 36.2494 22.9159 36.255 22.9188C36.2578 22.9216 36.262 22.9245 36.2676 22.9273L36.2802 22.9402C36.2802 22.943 36.2816 22.9445 36.2844 22.9445C36.2844 22.9473 36.2858 22.9502 36.2886 22.953C36.2886 22.953 36.2886 22.9544 36.2886 22.9573C36.2914 22.9602 36.2928 22.9616 36.2928 22.9616C36.2956 22.9644 36.297 22.9673 36.297 22.9701C36.2998 22.973 36.3012 22.9759 36.3012 22.9787C36.3012 22.9816 36.3026 22.9844 36.3054 22.9873C36.3054 22.9901 36.3054 22.993 36.3054 22.9958C36.3082 23.0016 36.3096 23.0058 36.3096 23.0087C36.3124 23.0144 36.3138 23.0201 36.3138 23.0258C36.3138 23.0287 36.3152 23.033 36.318 23.0387C36.318 23.0415 36.318 23.0458 36.318 23.0515C36.3208 23.0572 36.3222 23.0644 36.3222 23.0729C36.3222 23.0815 36.3236 23.0886 36.3264 23.0944C36.3264 23.1029 36.3264 23.1101 36.3264 23.1158C36.3264 23.1243 36.3264 23.1329 36.3264 23.1415C36.3264 23.1529 36.3278 23.1643 36.3306 23.1757C36.3306 23.1872 36.3306 23.2 36.3306 23.2143C36.3306 23.2257 36.3306 23.2371 36.3306 23.2485C36.3278 23.2628 36.3264 23.2757 36.3264 23.2871C36.3264 23.3042 36.325 23.3228 36.3222 23.3428C36.3194 23.3599 36.318 23.377 36.318 23.3942C36.3152 23.4142 36.3124 23.4327 36.3096 23.4499C36.3068 23.467 36.304 23.4855 36.3012 23.5055C36.2886 23.5783 36.2718 23.6554 36.255 23.7282C36.2466 23.7539 36.2382 23.7839 36.2298 23.8053C36.2242 23.8253 36.2171 23.8439 36.2087 23.861L36.1877 23.9039L36.1205 23.9296L35.6878 24.0966C35.4862 24.1737 35.2859 24.2551 35.087 24.3407C34.9106 24.4178 34.7383 24.4949 34.5661 24.5763C34.4317 24.6391 34.2986 24.7062 34.167 24.7776C34.062 24.8333 33.9611 24.8932 33.8603 24.9532C33.7763 25.0046 33.6881 25.0603 33.604 25.116C33.5256 25.1674 33.4486 25.2216 33.373 25.2787L32.9949 25.5571L32.9277 25.6256V29.0906L33.5116 29.1891C33.6503 29.2106 33.7889 29.2277 33.9191 29.2405C34.0536 29.2534 34.1838 29.262 34.3182 29.262C34.349 29.2648 34.3798 29.2648 34.4107 29.262C34.4415 29.262 34.4737 29.262 34.5073 29.262C34.5381 29.2591 34.5689 29.2577 34.5997 29.2577C34.6305 29.2548 34.6613 29.252 34.6921 29.2491C34.7257 29.2463 34.7594 29.242 34.793 29.2363C34.8238 29.2334 34.856 29.2291 34.8896 29.2234C34.9204 29.2177 34.9526 29.212 34.9862 29.2063C35.017 29.2006 35.0492 29.1949 35.0828 29.1891C35.2257 29.1634 35.3601 29.1249 35.5156 29.0778C35.6668 29.0321 35.818 28.9807 35.9693 28.9236L36.6079 28.6795L37.2044 28.4225C37.4005 28.334 37.5937 28.2397 37.7842 28.1398C38.0054 28.0199 38.2225 27.8928 38.4354 27.7586C38.6986 27.5873 38.9563 27.4074 39.2084 27.2189L39.5571 26.962L39.8133 26.7607V27.977L39.8385 27.9599L40.3679 27.5573C40.5219 27.4431 40.6732 27.3246 40.8216 27.2018C40.8608 27.1675 40.9 27.1333 40.9392 27.099C40.9784 27.0647 41.0163 27.0305 41.0527 26.9962C41.0919 26.9591 41.1297 26.922 41.1661 26.8849C41.2025 26.8506 41.2389 26.8135 41.2753 26.7735C41.3117 26.7364 41.3481 26.6978 41.3846 26.6579C41.421 26.615 41.4546 26.5722 41.4854 26.5294C41.519 26.4894 41.5512 26.4466 41.582 26.4009C41.6128 26.358 41.6436 26.3138 41.6744 26.2681L41.7669 26.1225L41.8761 25.8955C41.8901 25.8641 41.9041 25.8327 41.9181 25.8012C41.9321 25.767 41.9461 25.7341 41.9601 25.7027C41.9741 25.6685 41.9867 25.6342 41.9979 25.5999C42.0091 25.5685 42.0189 25.5357 42.0273 25.5014C42.0441 25.4472 42.0581 25.3929 42.0693 25.3387C42.0806 25.2873 42.0904 25.233 42.0988 25.1759C42.1044 25.1217 42.1072 25.0674 42.1072 25.0132C42.11 24.9589 42.11 24.9047 42.1072 24.8504C42.1044 24.8104 42.1002 24.7719 42.0946 24.7348C42.089 24.6948 42.082 24.6562 42.0735 24.6191C42.0623 24.582 42.0511 24.5449 42.0399 24.5078C42.0259 24.4735 42.0119 24.4378 41.9979 24.4007C41.9783 24.3607 41.9573 24.3236 41.9349 24.2893C41.9097 24.2522 41.8817 24.2179 41.8509 24.1865C41.8201 24.1551 41.7879 24.1266 41.7543 24.1009C41.7178 24.0752 41.6814 24.0523 41.645 24.0323C41.6254 24.0266 41.6072 24.0195 41.5904 24.0109C41.5736 24.0052 41.5568 23.9995 41.54 23.9938C41.5204 23.9881 41.5022 23.9824 41.4854 23.9767C41.4658 23.971 41.4476 23.9667 41.4308 23.9638C41.4168 23.9581 41.4014 23.9553 41.3846 23.9553C41.3706 23.9524 41.3551 23.9495 41.3383 23.9467C41.3243 23.9438 41.3089 23.9424 41.2921 23.9424C41.2781 23.9395 41.2627 23.9381 41.2459 23.9381H41.2081C41.1829 23.9381 41.1577 23.9381 41.1325 23.9381C41.1073 23.9381 41.0807 23.9395 41.0527 23.9424C41.0275 23.9424 41.0023 23.9438 40.977 23.9467C40.9518 23.9495 40.9266 23.9524 40.9014 23.9553H40.893C40.823 23.9638 40.753 23.9752 40.683 23.9895C40.6157 24.0009 40.5471 24.0152 40.4771 24.0323C40.4099 24.0495 40.3427 24.0666 40.2755 24.0837C40.2054 24.1037 40.1382 24.1251 40.0738 24.148C39.9856 24.178 39.9016 24.208 39.8217 24.2422V21.0985C39.6033 21.1927 39.3792 21.2869 39.1496 21.3811C38.9199 21.4725 38.6888 21.5596 38.4564 21.6424C38.3975 21.6652 38.3387 21.6867 38.2799 21.7066L38.2043 21.7323H38.1371L38.0699 21.6852C38.0671 21.6824 38.0643 21.6795 38.0615 21.6767C38.0587 21.6738 38.0559 21.671 38.0531 21.6681C38.0503 21.6624 38.0474 21.6581 38.0446 21.6553C38.0418 21.6524 38.039 21.6481 38.0362 21.6424C38.0334 21.6395 38.0306 21.6353 38.0278 21.6296C38.025 21.6267 38.0236 21.6224 38.0236 21.6167C38.0208 21.611 38.018 21.6067 38.0152 21.6039C38.0124 21.5981 38.011 21.5924 38.011 21.5867C38.0082 21.581 38.0054 21.5753 38.0026 21.5696C37.9998 21.5639 37.9984 21.5567 37.9984 21.5482C37.9956 21.5425 37.9928 21.5368 37.99 21.531C37.99 21.5253 37.9886 21.5182 37.9858 21.5096C37.9858 21.5068 37.9858 21.5025 37.9858 21.4968C37.9858 21.4939 37.9844 21.4896 37.9816 21.4839C37.9816 21.4811 37.9816 21.4768 37.9816 21.4711C37.9816 21.4682 37.9816 21.4654 37.9816 21.4625C37.9816 21.4568 37.9802 21.4511 37.9774 21.4454C37.9774 21.4397 37.9774 21.434 37.9774 21.4282C37.9774 21.4254 37.9774 21.4211 37.9774 21.4154C37.9802 21.4097 37.9816 21.404 37.9816 21.3983C37.9816 21.3769 37.9774 21.3554 37.9816 21.3297C37.9816 21.304 37.99 21.2741 37.99 21.2441C37.9928 21.2269 37.9956 21.2098 37.9984 21.1927C38.0012 21.1727 38.004 21.1541 38.0068 21.137C38.0124 21.1199 38.0166 21.1027 38.0194 21.0856C38.025 21.0685 38.0306 21.0513 38.0362 21.0342C38.039 21.0142 38.0446 20.9942 38.0531 20.9742C38.0587 20.9543 38.0643 20.9357 38.0699 20.9186C38.0783 20.8986 38.0853 20.88 38.0909 20.8629C38.0993 20.8429 38.1077 20.8243 38.1161 20.8072L38.1581 20.7858L38.2673 20.7472C38.3653 20.713 38.462 20.6773 38.5572 20.6402C38.6524 20.603 38.7462 20.5645 38.8387 20.5245C39.0109 20.4517 39.1832 20.3746 39.347 20.2932C39.41 20.259 39.4814 20.2247 39.5361 20.1947C39.5865 20.1662 39.6383 20.1362 39.6915 20.1048L39.8007 20.062H39.8259V21.0942C39.8623 21.0799 39.8988 21.0642 39.9352 21.0471C39.9716 21.0299 40.008 21.0128 40.0444 20.9957C40.0808 20.9785 40.1158 20.96 40.1494 20.94C40.1858 20.9228 40.2208 20.9043 40.2545 20.8843C40.4603 20.7729 40.6746 20.6487 40.8636 20.5288C41.0485 20.4089 41.2333 20.289 41.4098 20.1433C41.5904 20.002 41.7627 19.8521 41.9265 19.6936L42.0105 19.608C42.1072 19.5094 42.1996 19.4024 42.292 19.2996C42.3396 19.2482 42.3858 19.1953 42.4306 19.1411C42.4727 19.0868 42.5147 19.0312 42.5567 18.9741C42.5959 18.917 42.6351 18.8598 42.6743 18.8027C42.7107 18.7428 42.7457 18.6828 42.7793 18.6228C42.7961 18.5914 42.8115 18.5615 42.8256 18.5329C42.8396 18.5015 42.8536 18.4701 42.8676 18.4387C42.8816 18.4073 42.8942 18.3759 42.9054 18.3444C42.9166 18.313 42.9264 18.2816 42.9348 18.2502C42.9432 18.2274 42.9502 18.206 42.9558 18.186C42.9614 18.1631 42.9656 18.1403 42.9684 18.1174C42.974 18.0975 42.9782 18.076 42.981 18.0532C42.9838 18.0304 42.9852 18.0075 42.9852 17.9847C42.988 17.9704 42.9894 17.9547 42.9894 17.9376C42.9894 17.9204 42.9894 17.9047 42.9894 17.8904C42.9894 17.8733 42.988 17.8562 42.9852 17.839C42.9852 17.8219 42.9838 17.8062 42.981 17.7919C42.9754 17.7662 42.9698 17.7405 42.9642 17.7148C42.9558 17.692 42.946 17.6677 42.9348 17.642C42.9264 17.6192 42.9152 17.5963 42.9012 17.5735C42.8872 17.5535 42.8718 17.5335 42.855 17.5135C42.841 17.4964 42.827 17.4807 42.813 17.4664C42.7989 17.4521 42.7835 17.4393 42.7667 17.4279C42.7499 17.4136 42.7331 17.4007 42.7163 17.3893C42.6995 17.3779 42.6827 17.3679 42.6659 17.3593C42.6323 17.3422 42.6001 17.3265 42.5693 17.3122C42.5357 17.298 42.5007 17.2865 42.4643 17.278C42.4306 17.2665 42.397 17.2566 42.3634 17.248C42.327 17.2394 42.2906 17.2337 42.2542 17.2309C42.201 17.2223 42.1464 17.2166 42.0904 17.2137C42.0343 17.2109 41.9783 17.208 41.9223 17.2052C41.8663 17.2052 41.8103 17.2052 41.7543 17.2052C41.6982 17.208 41.6422 17.2123 41.5862 17.218C41.4574 17.2294 41.3299 17.2451 41.2039 17.2651C41.1073 17.2823 41.0107 17.2994 40.9182 17.3208C40.5485 17.4093 40.1844 17.5135 39.8259 17.6335V15.5048H37.6539V6.65171H54.4921M39.8133 26.7564L39.8217 26.7521V26.7564L39.8133 26.7607V26.7564ZM39.8217 26.7521V25.3772L39.4184 25.5528L38.8261 25.8055L37.8514 26.3238L36.944 26.8249L35.9021 27.4374L35.1459 27.8914L35.0828 27.9342L34.9904 27.9813H34.9232L34.8812 27.9342L34.856 27.8914V27.5059L34.8686 27.4331C34.8742 27.3903 34.8812 27.3474 34.8896 27.3046C34.8896 27.296 34.891 27.2875 34.8938 27.2789C34.8966 27.2732 34.8994 27.2661 34.9022 27.2575C34.9022 27.2489 34.9036 27.2404 34.9064 27.2318C34.9092 27.2232 34.912 27.2161 34.9148 27.2104C34.9176 27.2018 34.9204 27.1947 34.9232 27.189C34.926 27.1832 34.9288 27.1775 34.9316 27.1718C34.9344 27.1661 34.9372 27.159 34.94 27.1504C34.9428 27.1447 34.9456 27.139 34.9484 27.1333C34.9652 27.1033 34.982 27.0776 35.0072 27.0433C35.0296 27.0091 35.0534 26.9762 35.0786 26.9448C35.087 26.9334 35.0954 26.9234 35.1038 26.9148C35.1122 26.9034 35.1207 26.8934 35.1291 26.8849C35.1375 26.8734 35.1459 26.8634 35.1543 26.8549C35.1627 26.8463 35.1725 26.8363 35.1837 26.8249C35.2089 26.7992 35.2355 26.7735 35.2635 26.7478C35.2999 26.7164 35.3377 26.685 35.3769 26.6536C35.4819 26.5679 35.5912 26.4865 35.7046 26.4094C35.839 26.3124 35.9763 26.2181 36.1163 26.1268C36.3208 25.984 36.528 25.8455 36.7381 25.7113C36.8921 25.6114 37.0476 25.5143 37.2044 25.4201C37.3277 25.3458 37.4523 25.273 37.5783 25.2016C37.7632 25.0988 37.9522 25.0046 38.1413 24.9147C38.2449 24.8661 38.3485 24.8204 38.4522 24.7776C38.5908 24.7176 38.7462 24.6534 38.8765 24.602C39.0081 24.5477 39.1411 24.4935 39.2756 24.4392L39.5066 24.3493C39.5487 24.3322 39.5865 24.3193 39.6243 24.3065C39.6607 24.2922 39.6985 24.2793 39.7377 24.2679C39.7573 24.2622 39.7769 24.2565 39.7965 24.2508L39.8217 24.2422V25.3772L39.8974 25.3515L40.1116 25.2873L40.5611 25.1674L40.6031 25.1588L40.6662 25.1502C40.7208 25.1417 40.7796 25.1374 40.8342 25.1374C40.8594 25.1374 40.977 25.1374 41.0023 25.1374L41.0275 25.1417C41.0303 25.1417 41.0345 25.1417 41.0401 25.1417C41.0429 25.1417 41.0457 25.1431 41.0485 25.1459C41.0513 25.1459 41.0541 25.1459 41.0569 25.1459C41.0625 25.1488 41.0667 25.1502 41.0695 25.1502C41.0723 25.1531 41.0751 25.1545 41.0779 25.1545C41.0807 25.1545 41.0835 25.1559 41.0863 25.1588C41.0863 25.1588 41.0877 25.1602 41.0905 25.1631C41.0933 25.1631 41.0961 25.1645 41.0989 25.1674C41.1017 25.1674 41.1045 25.1688 41.1073 25.1716C41.1073 25.1716 41.1087 25.1716 41.1115 25.1716C41.1143 25.1745 41.1157 25.1759 41.1157 25.1759C41.1185 25.1788 41.1213 25.1802 41.1241 25.1802C41.1297 25.1859 41.1339 25.1916 41.1367 25.1973C41.1395 25.2002 41.1437 25.2045 41.1493 25.2102C41.1521 25.2159 41.1549 25.2216 41.1577 25.2273C41.1605 25.233 41.1619 25.2402 41.1619 25.2487C41.1619 25.2516 41.1633 25.2544 41.1661 25.2573C41.1661 25.2573 41.1661 25.2587 41.1661 25.2616C41.1661 25.2644 41.1661 25.2673 41.1661 25.2701C41.1661 25.273 41.1661 25.2759 41.1661 25.2787C41.1661 25.2816 41.1661 25.2844 41.1661 25.2873C41.1661 25.293 41.1661 25.2973 41.1661 25.3001C41.1661 25.303 41.1661 25.3058 41.1661 25.3087C41.1661 25.3116 41.1661 25.3144 41.1661 25.3173C41.1661 25.323 41.1661 25.3273 41.1661 25.3301C41.1661 25.3358 41.1647 25.3415 41.1619 25.3472C41.1619 25.3501 41.1619 25.3544 41.1619 25.3601C41.1591 25.3629 41.1577 25.3672 41.1577 25.3729C41.1549 25.3787 41.1535 25.3844 41.1535 25.3901C41.1507 25.3958 41.1493 25.4015 41.1493 25.4072C41.1465 25.4129 41.1437 25.4186 41.1409 25.4243C41.1381 25.43 41.1367 25.4358 41.1367 25.4415C41.1311 25.45 41.1255 25.46 41.1199 25.4715C41.1143 25.4829 41.1101 25.4943 41.1073 25.5057C41.1017 25.5171 41.0961 25.5271 41.0905 25.5357C41.0849 25.5471 41.0793 25.5571 41.0737 25.5657C41.0611 25.5871 41.0485 25.6042 41.0359 25.6299C41.0191 25.6513 41.0107 25.6685 40.9854 25.6985C40.9602 25.7284 40.9476 25.7456 40.9098 25.7884C40.8762 25.8269 40.8468 25.8612 40.8006 25.8998C40.7586 25.9426 40.7166 25.9854 40.6704 26.0282L40.4519 26.2296L39.8217 26.7521ZM49.9045 16.8197C49.9045 16.6441 49.8709 16.477 49.8079 16.3143C49.7406 16.1558 49.6482 16.0102 49.5264 15.8903C49.4087 15.7661 49.2659 15.6718 49.1105 15.6033C48.955 15.539 48.787 15.5048 48.6147 15.5048H47.3586V25.0389H48.6189C48.787 25.0389 48.955 25.0046 49.1105 24.9361C49.2701 24.8718 49.4087 24.7733 49.5306 24.6534C49.6482 24.5292 49.7448 24.3836 49.8079 24.2251C49.8751 24.0666 49.9087 23.8953 49.9087 23.724L49.9045 16.8197Z" fill="white"/>
<path fill-rule="evenodd" clip-rule="evenodd" d="M60.756 43.7815H5.28831C4.885 43.7815 4.4901 43.7001 4.12039 43.5417C3.75069 43.3875 3.4146 43.1562 3.12892 42.8692C2.84745 42.578 2.62059 42.2353 2.46934 41.8584C2.3139 41.4815 2.23828 41.0789 2.23828 40.6677L2.24668 5.35395C2.24668 4.94277 2.32651 4.54017 2.47775 4.16326C2.63319 3.78635 2.85585 3.4437 3.13733 3.15246C3.423 2.86549 3.7591 2.63849 4.1288 2.48002C4.4985 2.32154 4.89341 2.24017 5.29251 2.24017L60.7518 2.21875C61.1509 2.21875 61.5501 2.30013 61.9198 2.45432C62.2895 2.61279 62.6255 2.83979 62.907 3.13104C63.1927 3.418 63.4154 3.76065 63.5708 4.13756C63.722 4.51447 63.8019 4.92136 63.8019 5.32825V40.6677C63.8019 41.0746 63.722 41.4772 63.5708 41.8541C63.4154 42.231 63.1927 42.5737 62.907 42.8649C62.6255 43.1519 62.2895 43.3832 61.9198 43.5374C61.5501 43.6958 61.1509 43.7772 60.756 43.7815ZM5.29251 3.38374C5.04045 3.38374 4.79258 3.43514 4.55731 3.53365C4.32205 3.63216 4.11199 3.77778 3.93134 3.96195C3.75489 4.14184 3.61206 4.36028 3.51543 4.59585C3.4188 4.8357 3.36839 5.09268 3.36839 5.34966L3.35999 40.6677C3.35999 40.9247 3.4104 41.1817 3.50703 41.4173C3.60365 41.6571 3.74649 41.8755 3.92294 42.0554C4.10359 42.2396 4.31365 42.3852 4.54891 42.4837C4.78418 42.5823 5.03204 42.6336 5.28831 42.6336H60.756C61.0081 42.6336 61.256 42.5823 61.4912 42.4837C61.7265 42.3852 61.9366 42.2396 62.1172 42.0554C62.2937 41.8713 62.4365 41.6571 62.5331 41.4173C62.6298 41.1774 62.6802 40.9247 62.6802 40.6677V5.33253C62.6802 5.07555 62.6298 4.81856 62.5331 4.583C62.4365 4.34314 62.2979 4.12471 62.1172 3.94482C61.9366 3.76065 61.7265 3.61503 61.4912 3.51652C61.256 3.418 61.0081 3.36661 60.756 3.36661L5.29251 3.38374Z" fill="white"/>
</svg>
